<svg version="1.1" xmlns="http://www.w3.org/2000/svg" xmlns:xlink="http://www.w3.org/1999/xlink" width="1200" height="600"><defs><pattern id="eventFill" x="0" y="0" width="20" height="10" patternUnits="userSpaceOnUse"><line x1="0" y1="0" x2="20" y2="0" stroke="black" stroke-width="3"></line></pattern><pattern id="hourMarkFill" x="0" y="0" width="3" height="20" patternUnits="userSpaceOnUse"><line x1="0" y1="0" x2="0" y2="20" stroke="black" stroke-width="2"></line></pattern></defs><rect class="dayBox" fill="none" stroke="none" x="35" width="150" y="0" height="600"></rect><rect class="dayBox" fill="none" stroke="none" x="185" width="150" y="0" height="600"></rect><rect class="dayBox" fill="none" stroke="none" x="335" width="150" y="0" height="600"></rect><rect class="dayBox" fill="none" stroke="none" x="485" width="150" y="0" height="600"></rect><rect class="dayBox" fill="none" stroke="none" x="635" width="150" y="0" height="600"></rect><rect class="dayBox" fill="none" stroke="none" x="785" width="150" y="0" height="600"></rect><rect class="dayBox" fill="none" stroke="none" x="935" width="150" y="0" height="600"></rect><rect class="eventBox" width="20" stroke="none" fill="url(#eventFill)" x="687" y="292.3076923076923" height="158.8461538461538"></rect><rect class="eventBox" width="20" stroke="none" fill="url(#eventFill)" x="387" y="176.92307692307693" height="120.38461538461539"></rect><rect class="eventBox" width="20" stroke="none" fill="url(#eventFill)" x="987" y="100" height="120.38461538461539"></rect><rect class="eventBox" width="20" stroke="none" fill="url(#eventFill)" x="837" y="100" height="101.15384615384616"></rect><rect class="eventBox" width="20" stroke="none" fill="url(#eventFill)" x="837" y="292.3076923076923" height="101.15384615384613"></rect><rect class="eventBox" width="20" stroke="none" fill="url(#eventFill)" x="237" y="100" height="62.69230769230768"></rect><rect class="eventBox" width="20" stroke="none" fill="url(#eventFill)" x="237" y="446.15384615384613" height="62.692307692307736"></rect><rect class="eventBox" width="20" stroke="none" fill="url(#eventFill)" x="987" y="523.0769230769231" height="62.69230769230762"></rect><rect class="eventBox" width="20" stroke="none" fill="url(#eventFill)" x="387" y="446.15384615384613" height="62.692307692307736"></rect><rect class="eventBox" width="20" stroke="none" fill="url(#eventFill)" x="537" y="100" height="43.46153846153845"></rect><g><rect class="hourMarker" fill="url(#hourMarkFill)" stroke="none" width="15" height="15" x="65" y="93"></rect><rect class="hourMarker" fill="url(#hourMarkFill)" stroke="none" width="15" height="15" x="65" y="131.46153846153845"></rect><rect class="hourMarker" fill="url(#hourMarkFill)" stroke="none" width="15" height="15" x="65" y="169.92307692307693"></rect><rect class="hourMarker" fill="url(#hourMarkFill)" stroke="none" width="15" height="15" x="65" y="208.3846153846154"></rect><rect class="hourMarker" fill="url(#hourMarkFill)" stroke="none" width="15" height="15" x="65" y="246.84615384615387"></rect><rect class="hourMarker" fill="url(#hourMarkFill)" stroke="none" width="15" height="15" x="65" y="285.3076923076923"></rect><rect class="hourMarker" fill="url(#hourMarkFill)" stroke="none" width="15" height="15" x="65" y="323.7692307692308"></rect><rect class="hourMarker" fill="url(#hourMarkFill)" stroke="none" width="15" height="15" x="65" y="362.2307692307692"></rect><rect class="hourMarker" fill="url(#hourMarkFill)" stroke="none" width="15" height="15" x="65" y="400.69230769230774"></rect><rect class="hourMarker" fill="url(#hourMarkFill)" stroke="none" width="15" height="15" x="65" y="439.15384615384613"></rect><rect class="hourMarker" fill="url(#hourMarkFill)" stroke="none" width="15" height="15" x="65" y="477.61538461538464"></rect><rect class="hourMarker" fill="url(#hourMarkFill)" stroke="none" width="15" height="15" x="65" y="516.0769230769231"></rect><rect class="hourMarker" fill="url(#hourMarkFill)" stroke="none" width="15" height="15" x="65" y="554.5384615384615"></rect></g><g><rect class="hourMarker" fill="url(#hourMarkFill)" stroke="none" width="15" height="15" x="215" y="93"></rect><rect class="hourMarker" fill="url(#hourMarkFill)" stroke="none" width="15" height="15" x="215" y="131.46153846153845"></rect><rect class="hourMarker" fill="url(#hourMarkFill)" stroke="none" width="15" height="15" x="215" y="169.92307692307693"></rect><rect class="hourMarker" fill="url(#hourMarkFill)" stroke="none" width="15" height="15" x="215" y="208.3846153846154"></rect><rect class="hourMarker" fill="url(#hourMarkFill)" stroke="none" width="15" height="15" x="215" y="246.84615384615387"></rect><rect class="hourMarker" fill="url(#hourMarkFill)" stroke="none" width="15" height="15" x="215" y="285.3076923076923"></rect><rect class="hourMarker" fill="url(#hourMarkFill)" stroke="none" width="15" height="15" x="215" y="323.7692307692308"></rect><rect class="hourMarker" fill="url(#hourMarkFill)" stroke="none" width="15" height="15" x="215" y="362.2307692307692"></rect><rect class="hourMarker" fill="url(#hourMarkFill)" stroke="none" width="15" height="15" x="215" y="400.69230769230774"></rect><rect class="hourMarker" fill="url(#hourMarkFill)" stroke="none" width="15" height="15" x="215" y="439.15384615384613"></rect><rect class="hourMarker" fill="url(#hourMarkFill)" stroke="none" width="15" height="15" x="215" y="477.61538461538464"></rect><rect class="hourMarker" fill="url(#hourMarkFill)" stroke="none" width="15" height="15" x="215" y="516.0769230769231"></rect><rect class="hourMarker" fill="url(#hourMarkFill)" stroke="none" width="15" height="15" x="215" y="554.5384615384615"></rect></g><g><rect class="hourMarker" fill="url(#hourMarkFill)" stroke="none" width="15" height="15" x="365" y="93"></rect><rect class="hourMarker" fill="url(#hourMarkFill)" stroke="none" width="15" height="15" x="365" y="131.46153846153845"></rect><rect class="hourMarker" fill="url(#hourMarkFill)" stroke="none" width="15" height="15" x="365" y="169.92307692307693"></rect><rect class="hourMarker" fill="url(#hourMarkFill)" stroke="none" width="15" height="15" x="365" y="208.3846153846154"></rect><rect class="hourMarker" fill="url(#hourMarkFill)" stroke="none" width="15" height="15" x="365" y="246.84615384615387"></rect><rect class="hourMarker" fill="url(#hourMarkFill)" stroke="none" width="15" height="15" x="365" y="285.3076923076923"></rect><rect class="hourMarker" fill="url(#hourMarkFill)" stroke="none" width="15" height="15" x="365" y="323.7692307692308"></rect><rect class="hourMarker" fill="url(#hourMarkFill)" stroke="none" width="15" height="15" x="365" y="362.2307692307692"></rect><rect class="hourMarker" fill="url(#hourMarkFill)" stroke="none" width="15" height="15" x="365" y="400.69230769230774"></rect><rect class="hourMarker" fill="url(#hourMarkFill)" stroke="none" width="15" height="15" x="365" y="439.15384615384613"></rect><rect class="hourMarker" fill="url(#hourMarkFill)" stroke="none" width="15" height="15" x="365" y="477.61538461538464"></rect><rect class="hourMarker" fill="url(#hourMarkFill)" stroke="none" width="15" height="15" x="365" y="516.0769230769231"></rect><rect class="hourMarker" fill="url(#hourMarkFill)" stroke="none" width="15" height="15" x="365" y="554.5384615384615"></rect></g><g><rect class="hourMarker" fill="url(#hourMarkFill)" stroke="none" width="15" height="15" x="515" y="93"></rect><rect class="hourMarker" fill="url(#hourMarkFill)" stroke="none" width="15" height="15" x="515" y="131.46153846153845"></rect><rect class="hourMarker" fill="url(#hourMarkFill)" stroke="none" width="15" height="15" x="515" y="169.92307692307693"></rect><rect class="hourMarker" fill="url(#hourMarkFill)" stroke="none" width="15" height="15" x="515" y="208.3846153846154"></rect><rect class="hourMarker" fill="url(#hourMarkFill)" stroke="none" width="15" height="15" x="515" y="246.84615384615387"></rect><rect class="hourMarker" fill="url(#hourMarkFill)" stroke="none" width="15" height="15" x="515" y="285.3076923076923"></rect><rect class="hourMarker" fill="url(#hourMarkFill)" stroke="none" width="15" height="15" x="515" y="323.7692307692308"></rect><rect class="hourMarker" fill="url(#hourMarkFill)" stroke="none" width="15" height="15" x="515" y="362.2307692307692"></rect><rect class="hourMarker" fill="url(#hourMarkFill)" stroke="none" width="15" height="15" x="515" y="400.69230769230774"></rect><rect class="hourMarker" fill="url(#hourMarkFill)" stroke="none" width="15" height="15" x="515" y="439.15384615384613"></rect><rect class="hourMarker" fill="url(#hourMarkFill)" stroke="none" width="15" height="15" x="515" y="477.61538461538464"></rect><rect class="hourMarker" fill="url(#hourMarkFill)" stroke="none" width="15" height="15" x="515" y="516.0769230769231"></rect><rect class="hourMarker" fill="url(#hourMarkFill)" stroke="none" width="15" height="15" x="515" y="554.5384615384615"></rect></g><g><rect class="hourMarker" fill="url(#hourMarkFill)" stroke="none" width="15" height="15" x="665" y="93"></rect><rect class="hourMarker" fill="url(#hourMarkFill)" stroke="none" width="15" height="15" x="665" y="131.46153846153845"></rect><rect class="hourMarker" fill="url(#hourMarkFill)" stroke="none" width="15" height="15" x="665" y="169.92307692307693"></rect><rect class="hourMarker" fill="url(#hourMarkFill)" stroke="none" width="15" height="15" x="665" y="208.3846153846154"></rect><rect class="hourMarker" fill="url(#hourMarkFill)" stroke="none" width="15" height="15" x="665" y="246.84615384615387"></rect><rect class="hourMarker" fill="url(#hourMarkFill)" stroke="none" width="15" height="15" x="665" y="285.3076923076923"></rect><rect class="hourMarker" fill="url(#hourMarkFill)" stroke="none" width="15" height="15" x="665" y="323.7692307692308"></rect><rect class="hourMarker" fill="url(#hourMarkFill)" stroke="none" width="15" height="15" x="665" y="362.2307692307692"></rect><rect class="hourMarker" fill="url(#hourMarkFill)" stroke="none" width="15" height="15" x="665" y="400.69230769230774"></rect><rect class="hourMarker" fill="url(#hourMarkFill)" stroke="none" width="15" height="15" x="665" y="439.15384615384613"></rect><rect class="hourMarker" fill="url(#hourMarkFill)" stroke="none" width="15" height="15" x="665" y="477.61538461538464"></rect><rect class="hourMarker" fill="url(#hourMarkFill)" stroke="none" width="15" height="15" x="665" y="516.0769230769231"></rect><rect class="hourMarker" fill="url(#hourMarkFill)" stroke="none" width="15" height="15" x="665" y="554.5384615384615"></rect></g><g><rect class="hourMarker" fill="url(#hourMarkFill)" stroke="none" width="15" height="15" x="815" y="93"></rect><rect class="hourMarker" fill="url(#hourMarkFill)" stroke="none" width="15" height="15" x="815" y="131.46153846153845"></rect><rect class="hourMarker" fill="url(#hourMarkFill)" stroke="none" width="15" height="15" x="815" y="169.92307692307693"></rect><rect class="hourMarker" fill="url(#hourMarkFill)" stroke="none" width="15" height="15" x="815" y="208.3846153846154"></rect><rect class="hourMarker" fill="url(#hourMarkFill)" stroke="none" width="15" height="15" x="815" y="246.84615384615387"></rect><rect class="hourMarker" fill="url(#hourMarkFill)" stroke="none" width="15" height="15" x="815" y="285.3076923076923"></rect><rect class="hourMarker" fill="url(#hourMarkFill)" stroke="none" width="15" height="15" x="815" y="323.7692307692308"></rect><rect class="hourMarker" fill="url(#hourMarkFill)" stroke="none" width="15" height="15" x="815" y="362.2307692307692"></rect><rect class="hourMarker" fill="url(#hourMarkFill)" stroke="none" width="15" height="15" x="815" y="400.69230769230774"></rect><rect class="hourMarker" fill="url(#hourMarkFill)" stroke="none" width="15" height="15" x="815" y="439.15384615384613"></rect><rect class="hourMarker" fill="url(#hourMarkFill)" stroke="none" width="15" height="15" x="815" y="477.61538461538464"></rect><rect class="hourMarker" fill="url(#hourMarkFill)" stroke="none" width="15" height="15" x="815" y="516.0769230769231"></rect><rect class="hourMarker" fill="url(#hourMarkFill)" stroke="none" width="15" height="15" x="815" y="554.5384615384615"></rect></g><g><rect class="hourMarker" fill="url(#hourMarkFill)" stroke="none" width="15" height="15" x="965" y="93"></rect><rect class="hourMarker" fill="url(#hourMarkFill)" stroke="none" width="15" height="15" x="965" y="131.46153846153845"></rect><rect class="hourMarker" fill="url(#hourMarkFill)" stroke="none" width="15" height="15" x="965" y="169.92307692307693"></rect><rect class="hourMarker" fill="url(#hourMarkFill)" stroke="none" width="15" height="15" x="965" y="208.3846153846154"></rect><rect class="hourMarker" fill="url(#hourMarkFill)" stroke="none" width="15" height="15" x="965" y="246.84615384615387"></rect><rect class="hourMarker" fill="url(#hourMarkFill)" stroke="none" width="15" height="15" x="965" y="285.3076923076923"></rect><rect class="hourMarker" fill="url(#hourMarkFill)" stroke="none" width="15" height="15" x="965" y="323.7692307692308"></rect><rect class="hourMarker" fill="url(#hourMarkFill)" stroke="none" width="15" height="15" x="965" y="362.2307692307692"></rect><rect class="hourMarker" fill="url(#hourMarkFill)" stroke="none" width="15" height="15" x="965" y="400.69230769230774"></rect><rect class="hourMarker" fill="url(#hourMarkFill)" stroke="none" width="15" height="15" x="965" y="439.15384615384613"></rect><rect class="hourMarker" fill="url(#hourMarkFill)" stroke="none" width="15" height="15" x="965" y="477.61538461538464"></rect><rect class="hourMarker" fill="url(#hourMarkFill)" stroke="none" width="15" height="15" x="965" y="516.0769230769231"></rect><rect class="hourMarker" fill="url(#hourMarkFill)" stroke="none" width="15" height="15" x="965" y="554.5384615384615"></rect></g></svg>
